<?xml version="1.0" standalone="no"?><!DOCTYPE svg PUBLIC "-//W3C//DTD SVG 1.1//EN" "http://www.w3.org/Graphics/SVG/1.1/DTD/svg11.dtd"><svg t="1678290296247" class="icon" viewBox="0 0 1024 1024" version="1.1" xmlns="http://www.w3.org/2000/svg" p-id="1056" xmlns:xlink="http://www.w3.org/1999/xlink" width="64" height="64"><path d="M384 256a42.666667 42.666667 0 0 0-42.666667-42.666667H298.666667a42.666667 42.666667 0 0 0-42.666667 42.666667v554.666667a42.666667 42.666667 0 0 0 42.666667 42.666666h42.666666a42.666667 42.666667 0 0 0 42.666667-42.666666V256z m384 0a42.666667 42.666667 0 0 0-42.666667-42.666667h-42.666666a42.666667 42.666667 0 0 0-42.666667 42.666667v554.666667a42.666667 42.666667 0 0 0 42.666667 42.666666h42.666666a42.666667 42.666667 0 0 0 42.666667-42.666666V256z" fill="#606265" p-id="1057"></path></svg>